<svg width="1280" height="414" viewBox="0 0 1280 414" fill="none" xmlns="http://www.w3.org/2000/svg">
<g filter="url(#filter0_i_46_327)">
<path d="M0 326.719H59.6927L59.6927 213.918L101.236 213.918L162.542 326.719L229.091 326.719L159.315 204.652C193.598 191.358 216.184 163.561 216.184 118.843C216.184 50.3574 166.575 28.2001 104.059 28.2001L0 28.2001L0 326.719ZM59.6927 166.784L59.6927 75.7375H98.4123C136.729 75.7375 158.105 86.6147 158.105 118.843C158.105 150.669 136.729 166.784 98.4123 166.784L59.6927 166.784Z" fill="#6AC1AC"/>
<path d="M363.771 332.359C391.601 332.359 420.238 322.69 442.421 307.381L422.254 271.124C406.121 281.196 389.988 286.836 371.435 286.836C337.958 286.836 313.759 267.498 308.919 230.435L448.067 230.435C449.681 225.198 450.891 214.321 450.891 203.041C450.891 141.001 418.624 95.4776 356.512 95.4776C302.869 95.4776 251.243 141.001 251.243 213.918C251.243 288.447 300.449 332.359 363.771 332.359ZM308.112 190.955C312.549 158.324 333.522 141.404 357.318 141.404C386.358 141.404 400.071 160.741 400.071 190.955H308.112Z" fill="#6AC1AC"/>
<path d="M595.708 332.359C620.714 332.359 648.141 323.899 669.92 304.964L646.124 265.887C633.621 276.361 618.294 284.016 602.161 284.016C569.895 284.016 546.098 256.621 546.098 213.918C546.098 171.618 569.491 143.821 604.178 143.821C616.681 143.821 627.167 149.058 638.461 158.726L666.694 120.455C650.157 106.355 628.781 95.4776 600.951 95.4776C539.645 95.4776 485.599 138.986 485.599 213.918C485.599 288.85 533.192 332.359 595.708 332.359Z" fill="#6AC1AC"/>
<path d="M712.409 326.719H771.698V101.118L712.409 101.118V326.719ZM742.255 64.8603C762.422 64.8603 776.538 51.9688 776.538 32.2287C776.538 12.8915 762.422 0 742.255 0C721.685 0 707.569 12.8915 707.569 32.2287C707.569 51.9688 721.685 64.8603 742.255 64.8603Z" fill="#6AC1AC"/>
<path d="M834.904 413.333L894.194 413.333L894.194 344.847L892.177 307.784C909.52 323.496 928.477 332.359 948.24 332.359C997.849 332.359 1044.23 287.641 1044.23 210.292C1044.23 141.001 1011.16 95.4776 955.5 95.4776C931.3 95.4776 907.907 108.369 888.95 124.483H887.74L883.304 101.118L834.904 101.118L834.904 413.333ZM934.93 283.613C922.83 283.613 908.31 279.181 894.194 266.693V167.589C909.52 151.878 923.233 144.224 938.56 144.224C969.616 144.224 983.329 167.992 983.329 211.098C983.329 260.247 962.356 283.613 934.93 283.613Z" fill="#6AC1AC"/>
<path d="M1192.88 332.359C1220.71 332.359 1249.35 322.69 1271.53 307.381L1251.36 271.124C1235.23 281.196 1219.1 286.836 1200.54 286.836C1167.07 286.836 1142.87 267.498 1138.03 230.435L1277.18 230.435C1278.79 225.198 1280 214.321 1280 203.041C1280 141.001 1247.73 95.4776 1185.62 95.4776C1131.98 95.4776 1080.35 141.001 1080.35 213.918C1080.35 288.447 1129.56 332.359 1192.88 332.359ZM1137.22 190.955C1141.66 158.324 1162.63 141.404 1186.43 141.404C1215.47 141.404 1229.18 160.741 1229.18 190.955L1137.22 190.955Z" fill="#6AC1AC"/>
</g>
<defs>
<filter id="filter0_i_46_327" x="0" y="0" width="1280" height="417.333" filterUnits="userSpaceOnUse" color-interpolation-filters="sRGB">
<feFlood flood-opacity="0" result="BackgroundImageFix"/>
<feBlend mode="normal" in="SourceGraphic" in2="BackgroundImageFix" result="shape"/>
<feColorMatrix in="SourceAlpha" type="matrix" values="0 0 0 0 0 0 0 0 0 0 0 0 0 0 0 0 0 0 127 0" result="hardAlpha"/>
<feOffset dy="4"/>
<feGaussianBlur stdDeviation="2"/>
<feComposite in2="hardAlpha" operator="arithmetic" k2="-1" k3="1"/>
<feColorMatrix type="matrix" values="0 0 0 0 0 0 0 0 0 0 0 0 0 0 0 0 0 0 0.25 0"/>
<feBlend mode="normal" in2="shape" result="effect1_innerShadow_46_327"/>
</filter>
</defs>
</svg>
