<svg width="527" height="173" viewBox="0 0 527 173" fill="none" xmlns="http://www.w3.org/2000/svg">
<g filter="url(#filter0_i_62_732)">
<path d="M0 136.105H24.5766L24.5766 89.1146H41.6806L66.9215 136.105L94.3211 136.105L65.593 85.2547C79.7079 79.7165 89.0072 68.1366 89.0072 49.5081C89.0072 20.978 68.582 11.7477 42.843 11.7477L0 11.7477L0 136.105ZM24.5766 69.4792L24.5766 31.551L40.5182 31.551C56.2937 31.551 65.0948 36.0822 65.0948 49.5081C65.0948 62.7662 56.2937 69.4792 40.5182 69.4792H24.5766Z" fill="#6AC1AC"/>
<path d="M149.772 138.455C161.23 138.455 173.02 134.427 182.153 128.05L173.85 112.946C167.208 117.141 160.565 119.491 152.927 119.491C139.144 119.491 129.18 111.435 127.188 95.9954L184.478 95.9954C185.142 93.8137 185.64 89.2825 185.64 84.5834C185.64 58.7385 172.355 39.7743 146.782 39.7743C124.697 39.7743 103.441 58.7385 103.441 89.1146C103.441 120.162 123.7 138.455 149.772 138.455ZM126.855 79.5487C128.682 65.9549 137.317 58.9063 147.115 58.9063C159.071 58.9063 164.717 66.9619 164.717 79.5487L126.855 79.5487Z" fill="#6AC1AC"/>
<path d="M245.264 138.455C255.56 138.455 266.852 134.931 275.819 127.043L266.021 110.764C260.874 115.127 254.563 118.316 247.921 118.316C234.636 118.316 224.839 106.904 224.839 89.1146C224.839 71.4931 234.47 59.9132 248.751 59.9132C253.899 59.9132 258.217 62.0949 262.866 66.1227L274.49 50.1794C267.682 44.3056 258.881 39.7743 247.423 39.7743C222.182 39.7743 199.93 57.8993 199.93 89.1146C199.93 120.33 219.525 138.455 245.264 138.455Z" fill="#6AC1AC"/>
<path d="M293.312 136.105H317.723V42.1239H293.312V136.105ZM305.6 27.0197C313.903 27.0197 319.715 21.6493 319.715 13.4259C319.715 5.37038 313.903 0 305.6 0C297.131 0 291.319 5.37038 291.319 13.4259C291.319 21.6493 297.131 27.0197 305.6 27.0197Z" fill="#6AC1AC"/>
<path d="M343.746 172.188H368.156V143.658L367.326 128.218C374.466 134.763 382.271 138.455 390.408 138.455C410.833 138.455 429.93 119.826 429.93 87.6042C429.93 58.7385 416.313 39.7743 393.397 39.7743C383.434 39.7743 373.802 45.1447 365.997 51.8577H365.499L363.673 42.1239H343.746V172.188ZM384.928 118.148C379.946 118.148 373.968 116.302 368.156 111.1V69.8149C374.466 63.2697 380.112 60.0811 386.423 60.0811C399.209 60.0811 404.855 69.9827 404.855 87.9399C404.855 108.414 396.22 118.148 384.928 118.148Z" fill="#6AC1AC"/>
<path d="M491.131 138.455C502.589 138.455 514.38 134.427 523.513 128.05L515.21 112.946C508.568 117.141 501.925 119.491 494.287 119.491C480.504 119.491 470.54 111.435 468.548 95.9954L525.838 95.9954C526.502 93.8137 527 89.2825 527 84.5834C527 58.7385 513.715 39.7743 488.142 39.7743C466.057 39.7743 444.801 58.7385 444.801 89.1146C444.801 120.162 465.06 138.455 491.131 138.455ZM468.215 79.5487C470.042 65.9549 478.677 58.9063 488.475 58.9063C500.431 58.9063 506.077 66.9619 506.077 79.5487L468.215 79.5487Z" fill="#6AC1AC"/>
</g>
<defs>
<filter id="filter0_i_62_732" x="0" y="0" width="527" height="176.188" filterUnits="userSpaceOnUse" color-interpolation-filters="sRGB">
<feFlood flood-opacity="0" result="BackgroundImageFix"/>
<feBlend mode="normal" in="SourceGraphic" in2="BackgroundImageFix" result="shape"/>
<feColorMatrix in="SourceAlpha" type="matrix" values="0 0 0 0 0 0 0 0 0 0 0 0 0 0 0 0 0 0 127 0" result="hardAlpha"/>
<feOffset dy="4"/>
<feGaussianBlur stdDeviation="2"/>
<feComposite in2="hardAlpha" operator="arithmetic" k2="-1" k3="1"/>
<feColorMatrix type="matrix" values="0 0 0 0 0 0 0 0 0 0 0 0 0 0 0 0 0 0 0.25 0"/>
<feBlend mode="normal" in2="shape" result="effect1_innerShadow_62_732"/>
</filter>
</defs>
</svg>
